<svg version="1.0" xmlns="http://www.w3.org/2000/svg" width="64.000000pt" height="64.000000pt" viewBox="0 0 64 64" preserveAspectRatio="xMidYMid meet"><g transform="matrix(.1 0 0 -.1 0 64)" fill="#002047" stroke="none"><path d="M296.25 638c-65.5 -5.875 -122 -27.875 -173.75 -67.75 -15.5 -12 -45.375 -42.5 -57.75 -59 -32.75 -43.875 -52.875 -91.5 -61.25 -145.625 -3.25 -21 -3.875 -67.625 -1.25 -86.25 6.25 -43.375 20.25 -85.75 39 -118.25C92.5 72.75 178.375 14.875 277.875 1.875c19.375 -2.5 64.25 -2.5 83 0 47.25 6.125 90.375 21.625 129.625 46.25 36.75 23.125 71.5 57.25 96.75 95 10.875 16.375 25.875 46 33 65.625 24.125 66.125 25.5 139.125 4 207.875 -5.875 18.625 -20.5 52.125 -22.75 52.125 -0.5 0 -9 -8.125 -18.875 -18l-18 -18.125 5 -12.875c9.25 -23.375 13.5 -39.125 17.375 -63.5 2.75 -17.625 2.75 -56.875 0 -75 -7.75 -49.875 -27.5 -95.25 -57.5 -132.125 -5.125 -6.125 -6.5 -7.375 -7.125 -5.625 -0.5 1.125 -2.625 7.75 -4.75 14.75 -4.625 14.625 -15 36.625 -23.25 49.375 -18.875 29.125 -47 54.875 -78.875 71.875l-11.375 6.125 6.75 7.5c34.75 38.25 42.625 93.25 20 138.75 -11.375 23 -30.125 42.375 -52.5 54.375 -59.75 32.25 -134.875 9.875 -167.625 -50.125 -10.75 -19.625 -15.125 -39.25 -14.125 -63.5 1.125 -31.5 11.75 -57.125 32.625 -79.75l6.75 -7.375 -10.375 -5.25c-52.125 -26.75 -90.5 -74 -106.625 -131.375l-2.125 -8 -7.125 8.75c-76.625 94.75 -79.5 231.375 -7 328.625 48.5 64.875 119.625 103.875 199.5 109.25 19.75 1.375 44.625 0.125 63.375 -3.125l11.125 -2 20.5 20.5 20.375 20.375 -14.75 3.875c-17.5 4.625 -30.875 7.375 -45.375 9.125 -11.375 1.5 -51.875 2.625 -61.25 1.75zm41.875 -189.25c24.25 -6.25 43.5 -24.125 52 -48.375 3.625 -10.25 4.5 -28.5 1.875 -39.375 -6 -25.375 -25.375 -46.375 -50 -54.25 -29.25 -9.25 -62.25 1.125 -80.375 25.125 -10.875 14.25 -15.375 27.5 -15.375 45 0 19.5 6 35.75 18.625 49.5 18.875 20.875 46.25 29.25 73.25 22.375zm8.875 -198.125c66.625 -11.625 118.375 -65 128.625 -132.5 2.875 -19.375 3.5 -17.75 -9.75 -26.25 -89.125 -57.375 -204 -57.25 -292.375 0.375 -10.75 7 -11 7.25 -11 12.125 0 8.5 3.5 27.25 7.375 39 4.25 13.125 11.75 28.375 19.875 41 7.5 11.375 29.5 33.25 41.5 41.25 18.5 12.25 40.25 21.125 61.125 24.875 13.125 2.5 41 2.5 54.625 0.125z"/><path d="m552.875 562.25 -51.625 -51.625 -31.25 31.25 -31.25 31.25 -17.75 -17.875 -17.875 -17.75 48.75 -48.75 48.75 -48.75 69.625 69.625 69.75 69.75 -17.125 17.125c-9.5 9.5 -17.5 17.25 -17.875 17.25s-23.875 -23.25 -52.125 -51.5z"/></g></svg>