<svg width="14" height="9" viewBox="0 0 14 9" fill="none" xmlns="http://www.w3.org/2000/svg">
<path d="M6.99609 5.86627L1.70464 0.308174C1.52241 0.111643 1.26652 -5.24521e-05 0.998502 -5.24521e-05C0.730488 -5.24521e-05 0.474598 0.111643 0.292369 0.308174C-0.0974563 0.727252 -0.0974563 1.37625 0.292369 1.79532L6.28856 8.09384C6.46583 8.28361 6.71214 8.39387 6.97176 8.39966C7.23138 8.40546 7.48237 8.3063 7.66793 8.12463L13.7054 1.80092C14.0946 1.38158 14.0946 0.733119 13.7054 0.313772C13.5232 0.117241 13.2673 0.00554562 12.9993 0.00554562C12.7313 0.00554562 12.4754 0.117241 12.2931 0.313772L6.99609 5.86627Z"/>
</svg>
