<svg width="8" height="14" viewBox="0 0 8 14" fill="none" xmlns="http://www.w3.org/2000/svg">
<path d="M5.587 7.00254L0.293551 12.295C0.106377 12.4773 0 12.7332 0 13.0013C0 13.2694 0.106377 13.5253 0.293551 13.7076C0.692675 14.0975 1.31077 14.0975 1.70989 13.7076L7.70851 7.71022C7.88924 7.53291 7.99425 7.28655 7.99977 7.02688C8.00529 6.76721 7.91086 6.51617 7.73784 6.33057L1.71522 0.291915C1.31584 -0.0973043 0.698262 -0.0973043 0.298882 0.291915C0.111709 0.47418 0.00533152 0.730121 0.00533152 0.998187C0.00533152 1.26625 0.111709 1.52219 0.298882 1.70446L5.587 7.00254Z" fill="#002047"/>
</svg>
