<svg width="18" height="10" viewBox="0 0 18 10" fill="none" xmlns="http://www.w3.org/2000/svg">
<path d="M9.10789 6.98375L2.38727 0.366939C2.15582 0.132972 1.83082 0 1.49042 0C1.15001 0 0.825011 0.132972 0.593563 0.366939C0.0984509 0.865845 0.0984509 1.63846 0.593563 2.13736L8.20926 9.63564C8.43441 9.86156 8.74724 9.99281 9.07699 9.99971C9.40673 10.0066 9.72551 9.88857 9.96119 9.6723L17.6293 2.14403C18.1236 1.64481 18.1236 0.872828 17.6293 0.373604C17.3979 0.139637 17.0729 0.00666523 16.7325 0.00666523C16.3921 0.00666523 16.0671 0.139637 15.8356 0.373604L9.10789 6.98375Z" fill="#002047"/>
</svg>
