<svg width="13" height="20" viewBox="0 0 13 20" fill="none" xmlns="http://www.w3.org/2000/svg">
<path d="M3.62033 9.99677L11.5623 2.43577C11.8432 2.17538 12.0028 1.80974 12.0028 1.42677C12.0028 1.0438 11.8432 0.678157 11.5623 0.417768C10.9635 -0.139256 10.0362 -0.139256 9.43733 0.417768L0.437333 8.98577C0.166171 9.23907 0.00862522 9.59103 0.000343679 9.962C-0.00793786 10.333 0.133745 10.6916 0.393333 10.9568L9.42933 19.5838C10.0285 20.1398 10.9551 20.1398 11.5543 19.5838C11.8352 19.3234 11.9948 18.9577 11.9948 18.5748C11.9948 18.1918 11.8352 17.8262 11.5543 17.5658L3.62033 9.99677Z"/>
</svg>
