<svg width="19" height="21" viewBox="0 0 19 21" fill="none" xmlns="http://www.w3.org/2000/svg">
<path d="M18.24 4.70098L10.2015 0.185734C9.98676 0.0639047 9.74539 0 9.5 0C9.25461 0 9.01324 0.0639047 8.79846 0.185734L0.76 4.70286C0.530437 4.8318 0.338806 5.02165 0.205119 5.25259C0.0714329 5.48352 0.000593985 5.74706 0 6.0157V14.9843C0.000593985 15.2529 0.0714329 15.5165 0.205119 15.7474C0.338806 15.9783 0.530437 16.1682 0.76 16.2971L8.79846 20.8143C9.01324 20.9361 9.25461 21 9.5 21C9.74539 21 9.98676 20.9361 10.2015 20.8143L18.24 16.2971C18.4696 16.1682 18.6612 15.9783 18.7949 15.7474C18.9286 15.5165 18.9994 15.2529 19 14.9843V6.01664C18.9999 5.74752 18.9293 5.48339 18.7956 5.25192C18.6619 5.02045 18.47 4.83015 18.24 4.70098ZM9.5 1.49858L16.8397 5.62466L14.1194 7.15225L6.77971 3.02617L9.5 1.49858ZM9.5 9.75074L2.16034 5.62466L5.25788 3.88327L12.5975 8.00935L9.5 9.75074ZM17.5385 14.9881L10.2308 19.0944V11.0476L13.1538 9.40565V12.7515C13.1538 12.9505 13.2308 13.1413 13.3679 13.282C13.5049 13.4227 13.6908 13.5017 13.8846 13.5017C14.0784 13.5017 14.2643 13.4227 14.4013 13.282C14.5384 13.1413 14.6154 12.9505 14.6154 12.7515V8.58419L17.5385 6.94219V14.9843V14.9881Z" fill="#002047"/>
</svg>
