<svg width="16" height="16" viewBox="0 0 16 16" fill="none" xmlns="http://www.w3.org/2000/svg">
<g id="Component 2">
<rect id="_Color" width="16" height="16" rx="3" fill="#002047"/>
<path id="_Icon_Color-2" d="M9.83101 6.32384C10.1345 5.96933 10.6544 5.89605 11.044 6.15284C11.2254 6.2653 11.3498 6.45014 11.3858 6.6605C11.4217 6.87085 11.3657 7.08653 11.232 7.25284L8.54501 10.5998C8.4003 10.7731 8.19141 10.8801 7.96627 10.8963C7.74112 10.9125 7.51906 10.8365 7.35101 10.6858L5.25401 8.77084C5.09262 8.63012 5 8.42646 5 8.21234C5 7.99822 5.09262 7.79456 5.25401 7.65384C5.60516 7.34518 6.13087 7.34518 6.48201 7.65384L7.80001 8.85284L9.83101 6.32384Z" fill="white"/>
</g>
</svg>
