<svg width="11" height="11" viewBox="0 0 11 11" fill="none" xmlns="http://www.w3.org/2000/svg">
<path d="M10.706 0.302311C10.6296 0.225705 10.5388 0.164929 10.4388 0.123461C10.3388 0.0819928 10.2317 0.0606478 10.1235 0.0606478C10.0152 0.0606478 9.90806 0.0819928 9.80809 0.123461C9.70813 0.164929 9.61732 0.225705 9.54087 0.302311L5.49998 4.33494L1.45909 0.294048C1.38258 0.217542 1.29176 0.156854 1.1918 0.115449C1.09184 0.0740448 0.984704 0.0527344 0.876508 0.0527344C0.768313 0.0527344 0.661176 0.0740449 0.561217 0.115449C0.461257 0.156854 0.370431 0.217542 0.293926 0.294048C0.21742 0.370554 0.156732 0.461379 0.115327 0.561339C0.0739228 0.661298 0.0526123 0.768435 0.0526123 0.87663C0.0526123 0.984826 0.0739228 1.09196 0.115327 1.19192C0.156732 1.29188 0.21742 1.38271 0.293926 1.45921L4.33482 5.5001L0.293926 9.54099C0.21742 9.6175 0.156732 9.70833 0.115327 9.80828C0.0739228 9.90825 0.0526123 10.0154 0.0526123 10.1236C0.0526123 10.2318 0.0739228 10.3389 0.115327 10.4389C0.156732 10.5388 0.21742 10.6297 0.293926 10.7062C0.370431 10.7827 0.461257 10.8434 0.561217 10.8848C0.661176 10.9262 0.768313 10.9475 0.876508 10.9475C0.984704 10.9475 1.09184 10.9262 1.1918 10.8848C1.29176 10.8434 1.38258 10.7827 1.45909 10.7062L5.49998 6.66527L9.54087 10.7062C9.61738 10.7827 9.7082 10.8434 9.80816 10.8848C9.90812 10.9262 10.0153 10.9475 10.1235 10.9475C10.2316 10.9475 10.3388 10.9262 10.4387 10.8848C10.5387 10.8434 10.6295 10.7827 10.706 10.7062C10.7825 10.6297 10.8432 10.5388 10.8846 10.4389C10.926 10.3389 10.9473 10.2318 10.9473 10.1236C10.9473 10.0154 10.926 9.90825 10.8846 9.80828C10.8432 9.70833 10.7825 9.6175 10.706 9.54099L6.66515 5.5001L10.706 1.45921C11.0201 1.1452 11.0201 0.616328 10.706 0.302311Z" fill="white"/>
</svg>
