<svg width="21" height="26" viewBox="0 0 21 26" fill="none" xmlns="http://www.w3.org/2000/svg">
<path fill-rule="evenodd" clip-rule="evenodd" d="M16.625 2.16675H4.37501C2.92525 2.16675 1.75 3.62183 1.75 5.41676V7.58341C1.75 8.18174 2.14175 8.66676 2.625 8.66676H3.5V20.5834C3.5 22.3783 4.67524 23.8334 6.125 23.8334H14.875C16.3248 23.8334 17.5 22.3783 17.5 20.5834V8.66676H18.375C18.8582 8.66676 19.25 8.18174 19.25 7.58341V5.41676C19.25 3.62183 18.0748 2.16675 16.625 2.16675ZM15.75 20.5834C15.75 21.1817 15.3582 21.6668 14.875 21.6668H6.125C5.64174 21.6668 5.24999 21.1817 5.24999 20.5834V8.66676H15.75V20.5834ZM3.5 6.50007H17.5V5.41676C17.5 4.81843 17.1083 4.33341 16.625 4.33341H4.37501C3.89175 4.33341 3.5 4.81843 3.5 5.41676V6.50007ZM7.00001 18.4168V11.9168C7.00001 11.3184 7.39176 10.8334 7.87499 10.8334C8.35825 10.8334 8.75 11.3184 8.75 11.9168V18.4168C8.75 19.015 8.35825 19.5001 7.87499 19.5001C7.39176 19.5001 7.00001 19.015 7.00001 18.4168ZM12.25 11.9168V18.4168C12.25 19.015 12.6418 19.5001 13.125 19.5001C13.6082 19.5001 14 19.015 14 18.4168V11.9168C14 11.3184 13.6082 10.8334 13.125 10.8334C12.6418 10.8334 12.25 11.3184 12.25 11.9168Z" fill="#231F20"/>
</svg>
