<svg width="24" height="25" viewBox="0 0 24 25" fill="none" xmlns="http://www.w3.org/2000/svg">
<path d="M2.34146 25C1.69756 25 1.14615 24.7613 0.687219 24.2838C0.229073 23.8071 0 23.2339 0 22.5639V5.51157C0 4.84166 0.229073 4.26797 0.687219 3.7905C1.14615 3.31385 1.69756 3.07552 2.34146 3.07552H12.7902L10.4488 5.51157H2.34146V22.5639H18.7317V14.0987L21.0732 11.6626V22.5639C21.0732 23.2339 20.8441 23.8071 20.386 24.2838C19.927 24.7613 19.3756 25 18.7317 25H2.34146ZM15.4244 3.77588L17.0927 5.48112L9.36585 13.5201V15.2558H11.0049L18.761 7.18636L20.4293 8.8916L12.6732 16.961C12.4585 17.1843 12.21 17.3622 11.9274 17.4945C11.6441 17.6261 11.3463 17.6918 11.0341 17.6918H8.19512C7.86341 17.6918 7.58556 17.5753 7.36156 17.3423C7.13678 17.1084 7.02439 16.8189 7.02439 16.4738V13.5201C7.02439 13.1953 7.08293 12.8855 7.2 12.5907C7.31707 12.2968 7.48293 12.0382 7.69756 11.8149L15.4244 3.77588ZM20.4293 8.8916L15.4244 3.77588L18.3512 0.730816C18.8195 0.243606 19.3807 0 20.0347 0C20.688 0 21.239 0.243606 21.6878 0.730816L23.3268 2.4665C23.7756 2.93341 24 3.50183 24 4.17174C24 4.84166 23.7756 5.41007 23.3268 5.87698L20.4293 8.8916Z" fill="#002047"/>
</svg>
