<svg width="24" height="23" viewBox="0 0 24 23" fill="none" xmlns="http://www.w3.org/2000/svg">
<path d="M1.2 0V2.42105H20.4V0M1.2 3.63158L0 9.68421V12.1053H1.2V19.3684H12C11.94 18.9568 11.904 18.5332 11.904 18.0974C11.904 16.6205 12.36 15.1679 13.2 13.9574V12.1053H15.048C16.248 11.2942 17.652 10.8463 19.092 10.8463C19.944 10.8463 20.796 11.0037 21.6 11.3063V9.68421L20.4 3.63158M3.6 12.1053H10.8V16.9474H3.6M18 13.3158V16.9474H14.4V19.3684H18V23H20.4V19.3684H24V16.9474H20.4V13.3158" fill="white"/>
</svg>
