<svg version="1.0" xmlns="http://www.w3.org/2000/svg" width="56.000000pt" height="56.000000pt" viewBox="0 0 56 56" preserveAspectRatio="xMidYMid meet"><g transform="matrix(.1 0 0 -.1 0 56)" fill="#C3C3CA" stroke="none"><path d="M228.2 519.68c-96.04 -21.84 -172.76 -101.36 -189.28 -196.56 -1.96 -10.92 -2.8 -33.6 -1.96 -55.44 1.12 -31.64 2.52 -40.32 10.36 -63.28 12.88 -38.36 30.8 -66.92 60.48 -96.6 43.68 -43.68 91.28 -65.8 152.32 -71.12 43.96 -3.92 54.32 -1.12 54.32 15.12 0 14.28 -6.44 17.36 -40.88 19.04 -53.76 3.08 -95.76 19.6 -132.16 51.8 -18.76 16.52 -19.04 17.64 -14 37.24 10.08 38.64 32.48 70.28 64.68 91.84 28.28 19.04 38.64 21.84 56 15.96 17.08 -5.6 43.4 -5.88 63 0 14 4.2 15.96 4.2 29.68 -0.28 17.64 -5.88 28 -3.92 30.52 5.6 2.52 10.08 -0.84 20.44 -7 22.4 -5.32 1.68 -5.04 2.24 2.52 13.44 12.88 19.32 17.64 38.08 16.24 64.68 -1.68 30.24 -10.36 48.72 -33.04 69.72 -21.28 19.88 -41.16 27.72 -70 27.72 -58.52 0 -103.6 -44.24 -104.16 -102.76 -0.28 -22.68 5.6 -43.68 17.08 -59.36l7.84 -10.92 -17.08 -9.52c-20.16 -10.92 -56.28 -45.92 -67.48 -65.24 -4.2 -7.56 -10.64 -20.72 -14.28 -29.4l-6.44 -15.96 -7 15.96c-13.44 30.52 -17.08 48.72 -16.8 87.64 0 33.6 0.84 38.36 9.24 63.56 18.2 53.2 56.56 97.44 105 121.24 35.84 17.64 55.44 22.4 94.08 22.12 39.2 0 58.8 -4.76 94.92 -22.4 21.84 -10.92 30.8 -17.36 50.68 -37.24 41.44 -40.88 60.76 -84.28 63.56 -141.4 1.68 -35 4.48 -40.88 19.04 -40.88 16.52 0 19.04 9.52 15.4 53.2 -5.6 61.32 -27.72 108.92 -71.4 152.6 -29.68 29.68 -58.24 47.6 -96.6 60.48 -24.36 8.4 -29.96 9.24 -68.6 9.8 -28.28 0.84 -47.32 -0.28 -58.8 -2.8zm79.8 -88.76c27.16 -12.32 40.32 -32.48 40.6 -62.72 0 -40.88 -28 -69.72 -68.6 -69.72 -27.72 0 -50.96 14.56 -63.28 39.48 -7.56 15.12 -7.28 45.92 0.84 61.04 12.32 23.52 36.12 37.8 62.44 37.8 9.52 0 20.16 -2.24 28 -5.88z"/><path d="M383.6 265.72c-28.84 -5.6 -60.48 -28.84 -76.44 -55.72 -19.04 -32.48 -20.44 -73.08 -3.64 -107.8 35 -73.08 129.64 -89.6 186.76 -32.48 8.4 8.68 19.32 23.24 23.8 32.48 7.56 15.68 8.12 19.04 8.12 49 0 29.12 -0.84 33.88 -7.56 48.44 -22.96 49 -77.56 76.72 -131.04 66.08zm53.2 -37.8c6.16 -2.52 11.2 -5.6 11.2 -7 0 -1.68 -24.36 -28 -53.76 -58.8l-54.04 -56.28 -6.16 13.72c-7.84 16.52 -8.4 41.44 -1.68 61.32 5.88 17.64 28.56 40.6 45.64 46.76 16.52 5.88 44.52 5.88 58.8 0.28zm47.32 -47.32c12.04 -31.92 5.6 -61.04 -19.04 -85.68 -17.36 -17.36 -35.28 -24.92 -57.4 -24.92 -12.6 0.28 -39.48 8.4 -39.48 12.04 0 2.8 105.56 113.96 108.36 113.96 1.12 0 4.48 -7 7.56 -15.4z"/></g></svg>