<svg width="22" height="25" viewBox="0 0 22 25" fill="none" xmlns="http://www.w3.org/2000/svg">
<path d="M1.24528 1.72414C1.24528 1.26687 1.42022 0.828327 1.7316 0.504988C2.04298 0.18165 2.4653 0 2.90566 0H20.3396C20.78 0 21.2023 0.18165 21.5137 0.504988C21.8251 0.828327 22 1.26687 22 1.72414V23.2759C22 23.7331 21.8251 24.1717 21.5137 24.495C21.2023 24.8183 20.78 25 20.3396 25H2.90566C2.4653 25 2.04298 24.8183 1.7316 24.495C1.42022 24.1717 1.24528 23.7331 1.24528 23.2759V20.4655C0.863204 20.2123 0.548793 19.8631 0.331129 19.4502C0.113465 19.0373 -0.000421809 18.5741 1.17394e-06 18.1034C1.17394e-06 17.1741 0.43585 16.35 1.10664 15.8405C0.763489 15.5806 0.484369 15.2401 0.29205 14.8468C0.0997306 14.4536 -0.000339817 14.0187 1.17394e-06 13.5776C1.17394e-06 12.6483 0.43585 11.8241 1.10664 11.3147C0.763489 11.0547 0.484369 10.7142 0.29205 10.321C0.0997306 9.92769 -0.000339817 9.49279 1.17394e-06 9.05172C1.17394e-06 8.12241 0.43585 7.29828 1.10664 6.78879C0.763489 6.52885 0.484369 6.18836 0.29205 5.7951C0.0997306 5.40183 -0.000339817 4.96693 1.17394e-06 4.52586C-0.000192256 4.05522 0.113793 3.59211 0.331436 3.17929C0.549078 2.76646 0.863365 2.41721 1.24528 2.16379V1.72414ZM2.90566 16.6103V20.6897H20.3396V1.72414H2.90566V1.73276C3.09079 1.74655 3.27094 1.78103 3.44445 1.83276C3.61215 1.81121 3.89691 1.95086 4.19993 2.19828C4.53893 2.43405 4.82198 2.74664 5.02776 3.11248C5.23355 3.47833 5.35669 3.88791 5.38793 4.31034H5.39623C5.39623 4.48182 5.33063 4.64627 5.21386 4.76753C5.09709 4.88878 4.93872 4.9569 4.77359 4.9569C4.60845 4.9569 4.45008 4.88878 4.33331 4.76753C4.21654 4.64627 4.15094 4.48182 4.15094 4.31034H4.136C4.09106 3.98808 3.94697 3.68955 3.72524 3.4593C3.5035 3.22904 3.21601 3.07942 2.90566 3.03276V6.25776C3.09079 6.27241 3.27094 6.3069 3.44445 6.35862C3.61215 6.33707 3.89691 6.47672 4.19993 6.72414C4.53908 6.95982 4.8223 7.27236 5.02823 7.63822C5.23416 8.00407 5.35743 8.41369 5.38876 8.83621H5.39623C5.39623 9.00768 5.33063 9.17214 5.21386 9.29339C5.09709 9.41464 4.93872 9.48276 4.77359 9.48276C4.60845 9.48276 4.45008 9.41464 4.33331 9.29339C4.21654 9.17214 4.15094 9.00768 4.15094 8.83621H4.136C4.09106 8.51394 3.94697 8.21541 3.72524 7.98516C3.5035 7.75491 3.21601 7.60528 2.90566 7.55862V10.7836C3.09079 10.7991 3.27094 10.8328 3.44445 10.8845C3.61215 10.8638 3.89691 11.0017 4.19993 11.25C4.53893 11.4858 4.82198 11.7984 5.02776 12.1642C5.23355 12.5301 5.35669 12.9396 5.38793 13.3621H5.39623C5.39623 13.5335 5.33063 13.698 5.21386 13.8193C5.09709 13.9405 4.93872 14.0086 4.77359 14.0086C4.60845 14.0086 4.45008 13.9405 4.33331 13.8193C4.21654 13.698 4.15094 13.5335 4.15094 13.3621H4.136C4.09106 13.0398 3.94697 12.7413 3.72524 12.511C3.5035 12.2808 3.21601 12.1311 2.90566 12.0845V15.3095C3.09079 15.3241 3.27094 15.3586 3.44445 15.4103C3.61215 15.3897 3.89691 15.5276 4.19993 15.775C4.53903 16.0109 4.82215 16.3236 5.02794 16.6896C5.23373 17.0556 5.35682 17.4653 5.38793 17.8879H5.39623C5.39623 18.0594 5.33063 18.2239 5.21386 18.3451C5.09709 18.4664 4.93872 18.5345 4.77359 18.5345C4.60845 18.5345 4.45008 18.4664 4.33331 18.3451C4.21654 18.2239 4.15094 18.0594 4.15094 17.8879H4.136C4.09106 17.5657 3.94697 17.2671 3.72524 17.0369C3.5035 16.8066 3.21601 16.657 2.90566 16.6103ZM2.90566 22.4138V23.2759H20.3396V22.4138H2.90566Z" fill="#002047"/>
</svg>
