<svg width="18" height="21" viewBox="0 0 18 21" fill="none" xmlns="http://www.w3.org/2000/svg">
<path id="Vector" d="M16 14.475V9.66501C15.5 9.75751 15 9.85001 14.5 9.85001H14V15.4H4V8.92501C4 6.33501 6.2 4.30001 9 4.30001C9.1 3.09751 9.7 2.08001 10.5 1.24751C10.2 0.877506 9.6 0.600006 9 0.600006C7.9 0.600006 7 1.43251 7 2.45001V2.72751C4 3.56001 2 6.05751 2 8.92501V14.475L0 16.325V17.25H18V16.325L16 14.475ZM7 18.175C7 19.1925 7.9 20.025 9 20.025C10.1 20.025 11 19.1925 11 18.175H7ZM18 4.76251C18 6.52001 16.4 8.00001 14.5 8.00001C12.6 8.00001 11 6.52001 11 4.76251C11 3.00501 12.6 1.52501 14.5 1.52501C16.4 1.52501 18 3.00501 18 4.76251Z" fill="#002047"/>
</svg>
