<svg width="22" height="18" viewBox="0 0 22 18" fill="none" xmlns="http://www.w3.org/2000/svg">
<path d="M3.53571 0C2.59798 0 1.69866 0.387905 1.03559 1.07838C0.372512 1.76885 0 2.70534 0 3.68182V4.90909H22V3.68182C22 2.70534 21.6275 1.76885 20.9644 1.07838C20.3013 0.387905 19.402 0 18.4643 0H3.53571ZM0 14.3182V6.54545H22V14.3182C22 15.2947 21.6275 16.2311 20.9644 16.9216C20.3013 17.6121 19.402 18 18.4643 18H3.53571C2.59798 18 1.69866 17.6121 1.03559 16.9216C0.372512 16.2311 0 15.2947 0 14.3182ZM14.9286 11.4545C14.7202 11.4545 14.5203 11.5407 14.373 11.6942C14.2256 11.8476 14.1429 12.0557 14.1429 12.2727C14.1429 12.4897 14.2256 12.6978 14.373 12.8513C14.5203 13.0047 14.7202 13.0909 14.9286 13.0909H17.2857C17.4941 13.0909 17.6939 13.0047 17.8413 12.8513C17.9886 12.6978 18.0714 12.4897 18.0714 12.2727C18.0714 12.0557 17.9886 11.8476 17.8413 11.6942C17.6939 11.5407 17.4941 11.4545 17.2857 11.4545H14.9286Z" fill="#002047"/>
</svg>
