<svg width="20" height="21" viewBox="0 0 20 21" fill="none" xmlns="http://www.w3.org/2000/svg">
<path id="Vector" d="M5.00333 11.6945C4.85599 11.6945 4.71468 11.7481 4.6105 11.8435C4.50631 11.939 4.44778 12.0684 4.44778 12.2033V15.2558C4.44778 15.3907 4.50631 15.5201 4.6105 15.6155C4.71468 15.7109 4.85599 15.7645 5.00333 15.7645C5.15068 15.7645 5.29198 15.7109 5.39617 15.6155C5.50036 15.5201 5.55889 15.3907 5.55889 15.2558V14.747H6.11111C6.55314 14.747 6.97706 14.5862 7.28962 14.3C7.60218 14.0138 7.77778 13.6256 7.77778 13.2208C7.77778 12.816 7.60218 12.4278 7.28962 12.1416C6.97706 11.8553 6.55314 11.6945 6.11111 11.6945H5.00333ZM6.11111 13.7295H5.55889V12.712H6.11111C6.25845 12.712 6.39976 12.7656 6.50395 12.861C6.60814 12.9565 6.66667 13.0859 6.66667 13.2208C6.66667 13.3557 6.60814 13.4851 6.50395 13.5805C6.39976 13.6759 6.25845 13.7295 6.11111 13.7295ZM13.3311 12.2033C13.3311 12.0684 13.3896 11.939 13.4938 11.8435C13.598 11.7481 13.7393 11.6945 13.8867 11.6945H15.5589C15.7062 11.6945 15.8475 11.7481 15.9517 11.8435C16.0559 11.939 16.1144 12.0684 16.1144 12.2033C16.1144 12.3382 16.0559 12.4676 15.9517 12.563C15.8475 12.6584 15.7062 12.712 15.5589 12.712H14.4411L14.44 13.7316H15.5589C15.7062 13.7316 15.8475 13.7852 15.9517 13.8806C16.0559 13.976 16.1144 14.1054 16.1144 14.2403C16.1144 14.3752 16.0559 14.5047 15.9517 14.6001C15.8475 14.6955 15.7062 14.7491 15.5589 14.7491H14.44L14.4422 15.2548C14.4424 15.3216 14.4281 15.3878 14.4004 15.4495C14.3726 15.5113 14.3318 15.5675 14.2803 15.6148C14.1763 15.7104 14.0351 15.7643 13.8878 15.7645C13.7404 15.7648 13.599 15.7115 13.4946 15.6162C13.3902 15.521 13.3314 15.3917 13.3311 15.2568L13.3278 14.2413V14.2393L13.3311 12.2033ZM9.44444 11.6945H9.99778C10.5871 11.6945 11.1524 11.9089 11.5691 12.2906C11.9859 12.6722 12.22 13.1898 12.22 13.7295C12.22 14.2693 11.9859 14.7869 11.5691 15.1685C11.1524 15.5501 10.5871 15.7645 9.99778 15.7645H9.44444C9.2971 15.7645 9.15579 15.7109 9.05161 15.6155C8.94742 15.5201 8.88889 15.3907 8.88889 15.2558V12.2033C8.88889 12.0684 8.94742 11.939 9.05161 11.8435C9.15579 11.7481 9.2971 11.6945 9.44444 11.6945ZM10 14.747C10.2947 14.747 10.5773 14.6398 10.7857 14.449C10.994 14.2582 11.1111 13.9994 11.1111 13.7295C11.1111 13.4597 10.994 13.2009 10.7857 13.0101C10.5773 12.8192 10.2947 12.712 10 12.712V14.747ZM10 6.605V0.5H3.33333C2.74396 0.5 2.17873 0.714401 1.76198 1.09604C1.34524 1.47767 1.11111 1.99528 1.11111 2.535V9.31969C0.454444 9.60561 0 10.2192 0 10.9294V16.5256C0 17.2358 0.454444 17.8484 1.11111 18.1353V18.815C1.11111 19.3547 1.34524 19.8723 1.76198 20.254C2.17873 20.6356 2.74396 20.85 3.33333 20.85H16.6667C17.256 20.85 17.8213 20.6356 18.238 20.254C18.6548 19.8723 18.8889 19.3547 18.8889 18.815V18.1353C19.5456 17.8494 20 17.2358 20 16.5256V10.9294C20 10.2192 19.5456 9.60663 18.8889 9.31969V8.64H12.2222C11.6329 8.64 11.0676 8.4256 10.6509 8.04396C10.2341 7.66233 10 7.14472 10 6.605ZM1.94444 10.675H18.0556C18.1292 10.675 18.1999 10.7018 18.252 10.7495C18.3041 10.7972 18.3333 10.8619 18.3333 10.9294V16.5256C18.3333 16.5931 18.3041 16.6578 18.252 16.7055C18.1999 16.7532 18.1292 16.78 18.0556 16.78H1.94444C1.87077 16.78 1.80012 16.7532 1.74803 16.7055C1.69593 16.6578 1.66667 16.5931 1.66667 16.5256V10.9294C1.66667 10.8619 1.69593 10.7972 1.74803 10.7495C1.80012 10.7018 1.87077 10.675 1.94444 10.675ZM11.6667 6.605V1.00875L18.3333 7.11375H12.2222C12.0749 7.11375 11.9336 7.06015 11.8294 6.96474C11.7252 6.86933 11.6667 6.73993 11.6667 6.605Z" fill="#002047"/>
</svg>
