<svg width="18" height="20" viewBox="0 0 18 20" fill="none" xmlns="http://www.w3.org/2000/svg">
<path d="M3 19.8C2.16667 19.8 1.45833 19.5083 0.875 18.925C0.291667 18.3417 0 17.6333 0 16.8V14.8C0 14.5167 0.0960001 14.2793 0.288 14.088C0.479333 13.896 0.716667 13.8 1 13.8H3V0.525C3 0.375 3.06667 0.283333 3.2 0.25C3.33333 0.216667 3.46667 0.266667 3.6 0.4L4.5 1.3L5.65 0.15C5.75 0.0499999 5.86667 0 6 0C6.13333 0 6.25 0.0499999 6.35 0.15L7.5 1.3L8.65 0.15C8.75 0.0499999 8.86667 0 9 0C9.13333 0 9.25 0.0499999 9.35 0.15L10.5 1.3L11.65 0.15C11.75 0.0499999 11.8667 0 12 0C12.1333 0 12.25 0.0499999 12.35 0.15L13.5 1.3L14.65 0.15C14.75 0.0499999 14.8667 0 15 0C15.1333 0 15.25 0.0499999 15.35 0.15L16.5 1.3L17.4 0.4C17.5333 0.266667 17.6667 0.212333 17.8 0.237C17.9333 0.262333 18 0.358333 18 0.525V16.8C18 17.6333 17.7083 18.3417 17.125 18.925C16.5417 19.5083 15.8333 19.8 15 19.8H3ZM15 17.8C15.2833 17.8 15.5207 17.704 15.712 17.512C15.904 17.3207 16 17.0833 16 16.8V2.8H5V13.8H13C13.2833 13.8 13.5207 13.896 13.712 14.088C13.904 14.2793 14 14.5167 14 14.8V16.8C14 17.0833 14.096 17.3207 14.288 17.512C14.4793 17.704 14.7167 17.8 15 17.8ZM6.975 6.8C6.69167 6.8 6.45833 6.704 6.275 6.512C6.09167 6.32067 6 6.08333 6 5.8C6 5.51667 6.096 5.279 6.288 5.087C6.47933 4.89567 6.71667 4.8 7 4.8H11C11.2833 4.8 11.521 4.89567 11.713 5.087C11.9043 5.279 12 5.51667 12 5.8C12 6.08333 11.9043 6.32067 11.713 6.512C11.521 6.704 11.2833 6.8 11 6.8H6.975ZM6.975 9.8C6.69167 9.8 6.45833 9.704 6.275 9.512C6.09167 9.32067 6 9.08333 6 8.8C6 8.51667 6.096 8.279 6.288 8.087C6.47933 7.89567 6.71667 7.8 7 7.8H11C11.2833 7.8 11.521 7.89567 11.713 8.087C11.9043 8.279 12 8.51667 12 8.8C12 9.08333 11.9043 9.32067 11.713 9.512C11.521 9.704 11.2833 9.8 11 9.8H6.975ZM14 6.8C13.7167 6.8 13.4793 6.704 13.288 6.512C13.096 6.32067 13 6.08333 13 5.8C13 5.51667 13.096 5.279 13.288 5.087C13.4793 4.89567 13.7167 4.8 14 4.8C14.2833 4.8 14.5207 4.89567 14.712 5.087C14.904 5.279 15 5.51667 15 5.8C15 6.08333 14.904 6.32067 14.712 6.512C14.5207 6.704 14.2833 6.8 14 6.8ZM14 9.8C13.7167 9.8 13.4793 9.704 13.288 9.512C13.096 9.32067 13 9.08333 13 8.8C13 8.51667 13.096 8.279 13.288 8.087C13.4793 7.89567 13.7167 7.8 14 7.8C14.2833 7.8 14.5207 7.89567 14.712 8.087C14.904 8.279 15 8.51667 15 8.8C15 9.08333 14.904 9.32067 14.712 9.512C14.5207 9.704 14.2833 9.8 14 9.8ZM3 17.8H12V15.8H2V16.8C2 17.0833 2.09567 17.3207 2.287 17.512C2.479 17.704 2.71667 17.8 3 17.8Z" fill="#002047"/>
</svg>
