<svg width="19" height="19" viewBox="0 0 19 19" fill="none" xmlns="http://www.w3.org/2000/svg">
<path d="M18.3075 15.5947L14.8607 12.083C14.7047 11.9235 14.4949 11.8366 14.2735 11.8366C14.043 11.8366 13.9095 11.5698 14.0353 11.3766C14.7907 10.2166 15.2308 8.8254 15.2308 7.32702C15.2308 3.28061 12.0114 -0.000114441 8.0384 -0.000114441C4.06708 -0.000114441 0.847656 3.28061 0.847656 7.32702C0.847656 11.374 4.06708 14.6546 8.0384 14.6546C9.50427 14.6546 10.8657 14.2091 12.0018 13.4435C12.1939 13.314 12.4645 13.4464 12.4645 13.678C12.4645 13.9032 12.5518 14.1184 12.7061 14.2774L16.154 17.7891C16.4781 18.1198 17.0042 18.1198 17.3266 17.7891L18.3042 16.7918C18.6293 16.4617 18.6293 15.9254 18.3075 15.5947ZM8.0384 11.8366C5.59443 11.8366 3.61401 9.82079 3.61401 7.32702C3.61401 4.83643 5.59113 2.81796 8.0384 2.81796C10.4846 2.81796 12.4645 4.83378 12.4645 7.32702C12.4645 9.81761 10.4873 11.8366 8.0384 11.8366Z"/>
</svg>
