<svg width="24" height="22" viewBox="0 0 24 22" fill="none" xmlns="http://www.w3.org/2000/svg">
<path d="M20 6H4V4H20V6ZM18 0H6V2H18V0ZM10.312 19.1L7.012 15.8L8.412 14.4L10.312 16.3L15.612 11L17.012 12.4L10.312 19.1Z" fill="#002047"/>
<path d="M22 8H2C1.46957 8 0.960859 8.21071 0.585786 8.58579C0.210714 8.96086 0 9.46957 0 10L0 20C0 20.5304 0.210714 21.0391 0.585786 21.4142C0.960859 21.7893 1.46957 22 2 22H22C22.5304 22 23.0391 21.7893 23.4142 21.4142C23.7893 21.0391 24 20.5304 24 20V10C24 9.46957 23.7893 8.96086 23.4142 8.58579C23.0391 8.21071 22.5304 8 22 8ZM22 20H2V10H22V20Z" fill="#002047"/>
</svg>
