<svg width="20" height="15" viewBox="0 0 20 15" fill="none" xmlns="http://www.w3.org/2000/svg">
<path id="Vector" d="M13 6.55H16M16 6.55H19M16 6.55V9.325M16 6.55V3.775M13 13.95V12.7938C13 10.8781 11.081 9.325 8.714 9.325H5.286C2.919 9.325 1 10.8781 1 12.7938V13.95M10 3.775C10 4.51098 9.68393 5.21681 9.12132 5.73722C8.55871 6.25764 7.79565 6.55 7 6.55C6.20435 6.55 5.44129 6.25764 4.87868 5.73722C4.31607 5.21681 4 4.51098 4 3.775C4 3.03902 4.31607 2.33319 4.87868 1.81278C5.44129 1.29237 6.20435 1 7 1C7.79565 1 8.55871 1.29237 9.12132 1.81278C9.68393 2.33319 10 3.03902 10 3.775Z" stroke="black" stroke-width="2" stroke-linecap="round" stroke-linejoin="round"/>
</svg>
