<svg width="25" height="25" viewBox="0 0 25 25" fill="none" xmlns="http://www.w3.org/2000/svg">
<path d="M24.7795 13.75L23.3795 15.2206L20.5096 12.2059L21.9096 10.7353C22.0535 10.5871 22.247 10.5041 22.4485 10.5041C22.6501 10.5041 22.8436 10.5871 22.9875 10.7353L24.7795 12.6176C25.0735 12.9265 25.0735 13.4412 24.7795 13.75ZM11.1998 21.9706L19.6836 13.0588L22.5535 16.0735L14.0837 25H11.1998V21.9706ZM11.1998 14.7059C5.0119 14.7059 0 17.3382 0 20.5882V23.5294H8.39983V20.75L13.9997 14.8676C13.0757 14.75 12.1378 14.7059 11.1998 14.7059ZM11.1998 0C9.71459 0 8.29024 0.619746 7.24006 1.7229C6.18987 2.82606 5.59989 4.32226 5.59989 5.88235C5.59989 7.44245 6.18987 8.93865 7.24006 10.0418C8.29024 11.145 9.71459 11.7647 11.1998 11.7647C12.685 11.7647 14.1093 11.145 15.1595 10.0418C16.2097 8.93865 16.7997 7.44245 16.7997 5.88235C16.7997 4.32226 16.2097 2.82606 15.1595 1.7229C14.1093 0.619746 12.685 0 11.1998 0Z" fill="#002047"/>
</svg>
