<svg width="20" height="21" viewBox="0 0 20 21" fill="none" xmlns="http://www.w3.org/2000/svg">
<path d="M9.81818 10.5C8.46818 10.5 7.3125 9.98594 6.35114 8.95781C5.38977 7.92969 4.90909 6.69375 4.90909 5.25C4.90909 3.80625 5.38977 2.57031 6.35114 1.54219C7.3125 0.514063 8.46818 0 9.81818 0C11.1682 0 12.3239 0.514063 13.2852 1.54219C14.2466 2.57031 14.7273 3.80625 14.7273 5.25C14.7273 6.69375 14.2466 7.92969 13.2852 8.95781C12.3239 9.98594 11.1682 10.5 9.81818 10.5ZM1.22727 21C0.879545 21 0.588273 20.874 0.353455 20.622C0.117818 20.3709 0 20.0594 0 19.6875V17.325C0 16.5813 0.179182 15.8974 0.537545 15.2736C0.895091 14.6506 1.37045 14.175 1.96364 13.8469C3.23182 13.1687 4.52045 12.6599 5.82955 12.3204C7.13864 11.9818 8.46818 11.8125 9.81818 11.8125C11.1682 11.8125 12.4977 11.9818 13.8068 12.3204C15.1159 12.6599 16.4045 13.1687 17.6727 13.8469C18.2659 14.175 18.7413 14.6506 19.0988 15.2736C19.4572 15.8974 19.6364 16.5813 19.6364 17.325V19.6875C19.6364 20.0594 19.5185 20.3709 19.2829 20.622C19.0481 20.874 18.7568 21 18.4091 21H1.22727Z" fill="#002047"/>
</svg>
